<?xml version="1.0" standalone="no"?>
<!DOCTYPE svg PUBLIC "-//W3C//DTD SVG 20010904//EN"
 "http://www.w3.org/TR/2001/REC-SVG-20010904/DTD/svg10.dtd">
<svg version="1.0" xmlns="http://www.w3.org/2000/svg"
 width="1200.000000pt" height="1200.000000pt" viewBox="0 0 1200.000000 1200.000000"
 preserveAspectRatio="xMidYMid meet">

<g transform="translate(0.000000,1200.000000) scale(0.100000,-0.100000)"
fill="#000000" stroke="none">
<path d="M3905 9593 c-282 -24 -550 -100 -799 -225 -626 -313 -1052 -902
-1163 -1609 -24 -155 -24 -531 1 -709 51 -371 151 -668 332 -987 343 -605 958
-1257 2142 -2275 437 -376 1566 -1308 1583 -1308 6 0 50 33 97 73 48 40 200
165 337 277 1671 1364 2516 2153 3005 2805 371 495 545 895 616 1415 25 179
25 555 1 709 -73 463 -272 865 -590 1190 -335 342 -747 552 -1229 628 -159 25
-498 24 -663 -1 -564 -86 -1038 -363 -1503 -880 l-72 -80 -76 85 c-508 559
-997 827 -1623 889 -96 9 -305 11 -396 3z m373 -484 c222 -24 414 -79 604
-174 313 -156 551 -369 988 -885 67 -80 126 -145 130 -145 4 0 60 63 126 140
436 515 677 732 989 888 194 97 383 152 607 176 800 88 1540 -379 1788 -1128
71 -213 96 -400 86 -641 -36 -910 -519 -1609 -2021 -2926 -443 -388 -1560
-1317 -1577 -1312 -21 8 -971 794 -1308 1083 -786 674 -1304 1179 -1638 1593
-455 567 -652 1066 -652 1654 0 853 613 1558 1455 1672 125 17 296 19 423 5z"/>
</g>
</svg>
